<svg width="42" height="42" viewBox="0 0 42 42" fill="none" xmlns="http://www.w3.org/2000/svg">
<path d="M23.4 12.9C23.4 11.7402 22.4598 10.8 21.3 10.8V10.8C20.1402 10.8 19.2 11.7402 19.2 12.9V15C19.2 17.3196 17.3196 19.2 15 19.2H12.9C11.7402 19.2 10.8 20.1402 10.8 21.3V21.3C10.8 22.4598 11.7402 23.4 12.9 23.4H15C17.3196 23.4 19.2 25.2804 19.2 27.6V29.7C19.2 30.8598 20.1402 31.8 21.3 31.8V31.8C22.4598 31.8 23.4 30.8598 23.4 29.7V27.6C23.4 25.2804 25.2804 23.4 27.6 23.4H29.7C30.8598 23.4 31.8 22.4598 31.8 21.3V21.3C31.8 20.1402 30.8598 19.2 29.7 19.2H27.6C25.2804 19.2 23.4 17.3196 23.4 15V12.9Z" fill="#F0C419"/>
<path d="M29.4 0H12.6C5.6511 0 0 5.6511 0 12.6V39.9C0 40.457 0.221249 40.9911 0.615076 41.3849C1.0089 41.7788 1.54305 42 2.1 42H29.4C36.3489 42 42 36.3489 42 29.4V12.6C42 5.6511 36.3489 0 29.4 0ZM37.8 29.4C37.8 34.0326 34.0326 37.8 29.4 37.8H4.2V12.6C4.2 7.9674 7.9674 4.2 12.6 4.2H29.4C34.0326 4.2 37.8 7.9674 37.8 12.6V29.4Z" fill="#35495E"/>
</svg>
