<svg width="100" height="101" viewBox="0 0 100 101" fill="none" xmlns="http://www.w3.org/2000/svg">
<g clip-path="url(#clip0)">
<path d="M50 0C77.613 0 100 22.386 100 50C100 77.615 77.613 100 50 100C22.386 100 0 77.615 0 50C0 22.385 22.386 0 50 0Z" fill="#35495E"/>
<path d="M54 20C39.641 20 28 31.64 28 46C28 49.887 28.859 53.568 30.388 56.882L26.854 60.415C25.941 61.328 25.994 65.955 25.987 66.023C25.947 66.064 21.69 65.58 20.752 66.517L18.873 68.478C17.677 69.675 17.949 74.074 17.928 73.999L17.923 74.005C17.937 74.008 13.622 73.648 12.706 74.562L10.595 76.674C9.659 77.611 9.899 82.027 9.913 82.017C9.918 82.011 5.431 81.877 4.96 82.308C1.995 85.021 0 87.27 0 87.27L0.018 100.026C0.018 100.034 12.73 100.003 12.73 100.003L43.118 69.612C46.529 71.1884 50.2423 72.0033 54 72C68.359 72 80 60.357 80 46C80 31.641 68.359 20 54 20ZM60.741 33.481C61.5339 33.3059 62.3549 33.2998 63.1503 33.4633C63.9457 33.6267 64.6978 33.956 65.3574 34.4297C66.017 34.9033 66.5693 35.5107 66.9784 36.2122C67.3875 36.9136 67.6442 37.6935 67.7316 38.5008C67.8191 39.3081 67.7353 40.1248 67.4859 40.8976C67.2365 41.6704 66.8271 42.3819 66.2842 42.9858C65.7413 43.5897 65.0772 44.0724 64.3352 44.4024C63.5932 44.7324 62.79 44.9023 61.978 44.901C61.039 45.0591 60.0757 44.9905 59.1686 44.7009C58.2615 44.4113 57.4367 43.909 56.763 43.236C56.0906 42.5623 55.5888 41.7378 55.2994 40.8311C55.01 39.9244 54.9413 38.9616 55.099 38.023C55.3808 36.7362 56.0938 35.5843 57.12 34.7582C58.1461 33.9321 59.4237 33.4815 60.741 33.481V33.481Z" fill="#F0C419"/>
<path d="M66.652 33.314C65.1483 31.8109 63.1091 30.9666 60.983 30.9666C58.8569 30.9666 56.8178 31.8109 55.314 33.314C53.8115 34.8178 52.9675 36.8567 52.9675 38.9825C52.9675 41.1083 53.8115 43.1472 55.314 44.651C56.0583 45.3957 56.9421 45.9865 57.9148 46.3896C58.8875 46.7926 59.9301 47.0001 60.983 47.0001C62.0359 47.0001 63.0785 46.7926 64.0512 46.3896C65.0239 45.9865 65.9077 45.3957 66.652 44.651C67.3965 43.9066 67.987 43.0229 68.3899 42.0503C68.7928 41.0777 69.0002 40.0353 69.0002 38.9825C69.0002 37.9297 68.7928 36.8873 68.3899 35.9147C67.987 34.9421 67.3965 34.0584 66.652 33.314V33.314ZM64.5 42.499C64.0362 42.9627 63.4856 43.3305 62.8796 43.5814C62.2736 43.8323 61.6242 43.9614 60.9683 43.9613C60.3124 43.9612 59.663 43.8319 59.0571 43.5809C58.4512 43.3298 57.9007 42.9618 57.437 42.498C56.5005 41.5613 55.9745 40.2909 55.9747 38.9663C55.9749 37.6417 56.5013 36.3715 57.438 35.435C57.9016 34.9711 58.4521 34.6031 59.0579 34.3521C59.6638 34.101 60.3132 33.9718 60.969 33.9718C61.6248 33.9718 62.2742 34.101 62.8801 34.3521C63.486 34.6031 64.0364 34.9711 64.5 35.435C64.9641 35.8987 65.3322 36.4493 65.5834 37.0553C65.8346 37.6614 65.9638 38.311 65.9638 38.967C65.9638 39.623 65.8346 40.2726 65.5834 40.8787C65.3322 41.4847 64.9641 42.0353 64.5 42.499V42.499ZM37.864 66.378C37.0767 65.7571 36.3258 65.0913 35.615 64.384L0.0180054 99.98V100.023C0.0180054 100.025 1.90501 100.023 4.22401 100.017L37.864 66.378V66.378Z" fill="#F29C1F"/>
<path d="M75.967 0C64.055 0 54.174 8.682 52.294 20.061C52.8619 20.0225 53.4308 20.0022 54 20C55.089 20 56.159 20.075 57.212 20.206C58.975 11.456 66.7 4.866 75.967 4.866C86.534 4.866 95.102 13.431 95.102 24C95.102 34.567 86.538 43.134 75.967 43.134C69.128 43.134 63.145 39.534 59.76 34.138C58.8818 34.3504 58.0782 34.7985 57.436 35.434C56.8428 36.0348 56.4138 36.7779 56.19 37.592C60.518 43.877 67.76 48 75.967 48C89.221 48 99.967 37.255 99.967 24C99.967 10.746 89.223 0 75.967 0Z" fill="#A1A3A6"/>
<path d="M61.104 36.017C60.6199 35.4173 60.1711 34.7899 59.76 34.138C59.5472 34.1913 59.3378 34.2574 59.133 34.336L59.127 34.338C58.9359 34.4137 58.7493 34.5001 58.568 34.597L58.281 34.774L58.019 34.942C57.831 35.082 57.648 35.232 57.476 35.4L57.402 35.473C57.2436 35.6371 57.0966 35.8119 56.962 35.996L56.779 36.272L56.638 36.501C56.4473 36.8454 56.2967 37.2104 56.189 37.589C56.64 38.244 57.127 38.869 57.642 39.475L61.104 36.017V36.017Z" fill="#A1A3A6"/>
</g>
<defs>
<clipPath id="clip0">
<rect width="100" height="100.026" fill="white"/>
</clipPath>
</defs>
</svg>
