<svg width="42" height="42" viewBox="0 0 42 42" fill="none" xmlns="http://www.w3.org/2000/svg">
<path d="M29.4 42H12.6C5.6511 42 0 36.3489 0 29.4V2.1C0 1.54305 0.221249 1.0089 0.615076 0.615076C1.0089 0.22125 1.54305 1.90735e-06 2.1 1.90735e-06H29.4C36.3489 1.90735e-06 42 5.6511 42 12.6V29.4C42 36.3489 36.3489 42 29.4 42ZM37.8 12.6C37.8 7.9674 34.0326 4.2 29.4 4.2H4.2V29.4C4.2 34.0326 7.9674 37.8 12.6 37.8H29.4C34.0326 37.8 37.8 34.0326 37.8 29.4V12.6Z" fill="#35495E"/>
<path d="M20.7252 13.5724C20.8716 13.7411 20.9892 13.9336 21.075 14.142C21.2599 14.5913 21.6358 15 22.1216 15V15C22.607 15 23.0093 14.6034 22.9176 14.1269C22.8735 13.8973 22.8117 13.672 22.7328 13.4538C22.5557 12.9637 22.2958 12.5189 21.9681 12.1449C20.8216 10.8298 18.9502 10.6476 17.6036 11.5985C17.2214 11.8683 17.2281 12.4077 17.5348 12.7609V12.7609C17.9081 13.1908 18.595 13.1519 19.1523 13.0354C19.7092 12.9189 20.3115 13.0986 20.7252 13.5724Z" fill="#B6B5BC"/>
<circle cx="19" cy="17" r="8" fill="#B2E8F3" fill-opacity="0.49"/>
<path d="M28 17C28 21.9706 23.9706 26 19 26C14.0294 26 10 21.9706 10 17C10 12.0294 14.0294 8 19 8C23.9706 8 28 12.0294 28 17ZM11.8599 17C11.8599 20.9433 15.0567 24.1401 19 24.1401C22.9433 24.1401 26.1401 20.9433 26.1401 17C26.1401 13.0567 22.9433 9.85993 19 9.85993C15.0567 9.85993 11.8599 13.0567 11.8599 17Z" fill="#F0C419"/>
<rect x="23" y="23.208" width="1.83299" height="11.6089" rx="0.916494" transform="rotate(-41.2251 23 23.208)" fill="#F0C419"/>
</svg>
